<?xml version="1.0" encoding="UTF-8" standalone="no"?>
<svg
   width="1200px"
   height="1600px"
   viewBox="0 0 1200 1600"
   version="1.1"
   id="svg117461"
   sodipodi:docname="male-3.svg"
   inkscape:version="1.2.1 (9c6d41e, 2022-07-14)"
   xmlns:inkscape="http://www.inkscape.org/namespaces/inkscape"
   xmlns:sodipodi="http://sodipodi.sourceforge.net/DTD/sodipodi-0.dtd"
   xmlns:xlink="http://www.w3.org/1999/xlink"
   xmlns="http://www.w3.org/2000/svg"
   xmlns:svg="http://www.w3.org/2000/svg"
   xmlns:rdf="http://www.w3.org/1999/02/22-rdf-syntax-ns#"
   xmlns:cc="http://creativecommons.org/ns#"
   xmlns:dc="http://purl.org/dc/elements/1.1/">
  <sodipodi:namedview
     id="namedview117463"
     pagecolor="#ffffff"
     bordercolor="#000000"
     borderopacity="0.25"
     inkscape:showpageshadow="2"
     inkscape:pageopacity="0.0"
     inkscape:pagecheckerboard="0"
     inkscape:deskcolor="#d1d1d1"
     showgrid="false"
     inkscape:zoom="0.36702826"
     inkscape:cx="339.21093"
     inkscape:cy="702.94314"
     inkscape:window-width="1440"
     inkscape:window-height="794"
     inkscape:window-x="0"
     inkscape:window-y="25"
     inkscape:window-maximized="0"
     inkscape:current-layer="upper-limb" />
  <!-- Generator: Sketch 56.3 (81716) - https://sketch.com -->
  <title
     id="title117298">gee_me_007@2x</title>
  <desc
     id="desc117300">Created with Sketch.</desc>
  <defs
     id="defs117304">
    <path
       d="M295.20828,440.795184 C272.62528,440.365184 262.57928,433.905184 253.72828,419.405184 L248.82728,419.405184 C242.66328,426.095184 245.15428,429.565184 242.66328,440.795184 C239.34228,455.775184 236.53828,453.635184 233.21728,467.535184 C230.91828,477.165184 230.45028,491.605184 235.98528,499.625184 C244.58128,512.085184 255.35728,510.855184 273.62228,510.855184 C284.13928,510.855184 301.85128,508.185184 317.90228,512.465184 C340.31228,518.435184 402.03328,521.555184 417.53228,516.735184 C443.94328,508.535184 435.79728,484.655184 424.72828,475.555184 C405.30228,459.605184 367.77828,460.705184 358.30828,448.285184 C350.56028,438.125184 346.16528,430.735184 341.53028,421.465184 C341.53028,413.225184 327.11028,413.225184 326.08028,419.405184 C328.29228,432.245184 323.43628,441.335184 295.20828,440.795184 Z"
       id="path-1" />
    <path
       d="M65.4208413,440.795184 C42.8378413,440.365184 32.7918413,433.905184 23.9408413,419.405184 L19.0398413,419.405184 C12.8758413,426.095184 15.3668413,429.565184 12.8758413,440.795184 C9.5548413,455.775184 6.7508413,453.635184 3.4298413,467.535184 C1.1308413,477.165184 0.662841297,491.605184 6.1978413,499.625184 C14.7938413,512.085184 25.5698413,510.855184 43.8348413,510.855184 C54.3518413,510.855184 72.0638413,508.185184 88.1148413,512.465184 C110.524841,518.435184 172.245841,521.555184 187.744841,516.735184 C214.155841,508.535184 206.009841,484.655184 194.940841,475.555184 C175.514841,459.605184 137.990841,460.705184 128.520841,448.285184 C120.772841,438.125184 116.377841,430.735184 111.742841,421.465184 C111.742841,413.225184 97.3228413,413.225184 96.2928413,419.405184 C98.5048413,432.245184 93.6488413,441.335184 65.4208413,440.795184 Z"
       id="path-3" />
  </defs>
  <g
     id="gee_me_007"
     stroke="none"
     stroke-width="1"
     fill="none"
     fill-rule="evenodd">
    <g
       transform="translate(345.000000, 96.000000)"
       id="g117458">
      <g
         id="lower-limb"
         transform="translate(50.000720, 879.124816)">
        <path
           d="M125.555136,492.433162 C142.56439,503.251947 165.123473,498.233581 175.942258,481.224328 C179.610142,475.457695 181.027267,470.631333 182.048203,464.639782 C182.535875,461.777793 182.865227,458.697026 183.103445,455.202789 C183.482459,449.643309 183.644396,442.686222 183.627426,434.222004 C183.597866,419.478607 183.018725,399.931814 181.969039,376.394052 C180.25734,338.011582 177.306081,289.774194 174.338634,248.864536 C172.880245,228.758967 155.399202,213.64244 135.293632,215.10083 C115.188063,216.55922 100.071537,234.040262 101.529926,254.145832 C104.451898,294.428555 107.363295,342.014423 109.041522,379.646316 C110.049024,402.238167 110.600469,420.850189 110.627572,434.368364 C110.641416,441.273213 110.51584,446.668188 110.272499,450.237579 C110.253335,450.518683 110.234224,450.77636 110.215911,451.008108 C105.552494,466.304886 111.403892,483.432221 125.555136,492.433162 Z"
           id="Path"
           fill="#4A4E52"
           fill-rule="nonzero" />
        <path
           d="M251.992575,439.998734 C251.957587,440.156356 251.965423,440.127171 252.053893,439.859444 C252.373893,438.891069 252.85652,437.734271 253.649081,436.286219 C255.307567,433.256077 257.612837,430.239396 261.097023,427.33065 C266.935944,422.45607 274.588203,419.388232 283.11583,419.375225 C270.383981,419.394511 259.181981,425.930424 252.665187,435.825559 C252.444209,437.585773 252.216365,438.990555 251.992575,439.998734 Z M246.67028,455.875184 C246.67028,476.033577 263.011887,492.375184 283.17028,492.375184 C292.640737,492.375184 301.191949,488.952972 307.880375,483.369189 C312.190747,479.770708 315.281409,475.726261 317.684919,471.334921 C320.358914,466.44939 322.00124,461.479429 323.257974,455.817805 C324.867322,448.567641 325.882235,439.618985 326.539223,428.491074 C327.614659,410.275589 327.723548,385.617158 327.024292,355.544216 C325.935982,308.739173 322.829608,249.441305 319.574605,204.57414 C318.115997,184.468586 300.63479,169.35225 280.529236,170.810859 C260.423682,172.269467 245.307347,189.750675 246.765955,209.856228 C249.940529,253.614755 252.986467,311.75895 254.044018,357.241152 C254.700676,385.482087 254.59957,408.378094 253.666119,424.188669 C253.385888,428.935148 253.035161,432.878515 252.665187,435.825559 C248.875549,441.579765 246.67028,448.469941 246.67028,455.875184 Z"
           id="path117307"
           fill="#4A4E52"
           fill-rule="nonzero" />
        <polygon
           id="polygon117309"
           fill="#2B353C"
           fill-rule="nonzero"
           points="60.6672803 30.4751839 191.34428 42.1921839 191.34428 400.865184 99.6712803 400.865184" />
        <ellipse
           id="Oval"
           fill="#2B353C"
           fill-rule="nonzero"
           cx="209.31228"
           cy="63.6311839"
           rx="121.851"
           ry="62.7556" />
        <polygon
           id="polygon117312"
           fill="#2B353C"
           fill-rule="nonzero"
           points="211.06728 43.0271839 352.18228 43.0271839 339.73228 403.235184 245.78628 403.235184" />
        <polygon
           id="polygon117314"
           fill="#5484A0"
           fill-rule="nonzero"
           points="275.505979 262.455162 276.321948 270.359288 298.019724 273.975486 281.760936 279.936848 284.597624 287.673519 315.498624 276.343519 314.757613 268.41108 292.475601 264.697512 315.573582 255.715206 314.08028 247.755024 276.99928 247.755024 276.99928 255.995344 292.117387 255.995344" />
        <polygon
           id="polygon117316"
           fill="#5484A0"
           fill-rule="nonzero"
           points="119.321948 268.41108 118.580936 276.343519 149.481936 287.673519 152.318624 279.936848 136.059837 273.975486 157.757613 270.359288 158.573582 262.455162 141.962173 255.995344 157.08028 255.995344 157.08028 247.755024 119.99928 247.755024 118.505979 255.715206 141.603959 264.697512" />
        <polygon
           id="polygon117318"
           fill="#303F4A"
           fill-rule="nonzero"
           points="247.11828 402.925184 244.02828 382.325184 341.88228 382.325184 339.82228 402.925184" />
        <polygon
           id="polygon117320"
           fill="#303F4A"
           fill-rule="nonzero"
           points="99.8232803 401.895184 96.7322803 381.295184 191.49628 381.295184 191.49628 401.895184" />
        <path
           d="M435.30728,512.365184 C437.28428,507.915184 435.86128,497.975184 434.75428,496.315184 C433.64728,494.655184 299.20828,484.145184 299.20828,484.145184 C276.89528,482.485184 231.33628,472.135184 228.27928,484.145184 C217.85828,525.085184 245.55028,525.085184 263.25428,525.085184 C287.59628,525.085184 290.48428,518.635184 306.40028,520.665184 C314.69928,521.715184 326.87028,527.295184 382.74628,527.295184 C427.56128,527.295184 430.88128,522.315184 435.30728,512.365184 Z"
           id="path117322"
           fill="#29282D"
           fill-rule="nonzero" />
        <mask
           id="mask-2"
           fill="white">
          <use
             xlink:href="#path-1"
             id="use117324" />
        </mask>
        <use
           id="use117327"
           fill="#3E3C47"
           fill-rule="nonzero"
           xlink:href="#path-1" />
        <path
           d="M418.46628,482.775184 C418.84728,476.135184 420.10628,478.095184 422.28228,475.025184 C438.91328,475.025184 436.11728,509.335184 436.11728,509.335184 L405.60528,524.465184 C401.78928,524.285184 345.65028,523.645184 345.65028,516.735184 C398.05528,519.315184 420.10628,510.435184 420.10628,501.575184 C420.10628,494.535184 417.98928,491.075184 418.46628,482.775184 Z"
           id="path117329"
           fill="#29282D"
           fill-rule="nonzero"
           mask="url(#mask-2)" />
        <path
           d="M311.13428,480.475184 C317.29828,482.695184 322.39328,482.865184 325.44128,480.905184 C333.29828,475.775184 329.23628,466.695184 327.49228,463.125184 C330.78728,467.585184 334.05728,472.055184 336.50828,476.855184 C340.37828,484.345184 341.64328,492.325184 338.26228,497.115184 C332.19428,505.755184 319.64628,500.555184 311.72528,496.255184 L260.68628,463.125184 L311.13428,480.475184 Z"
           id="path117331"
           fill="#EAF4FB"
           fill-rule="nonzero"
           mask="url(#mask-2)" />
        <path
           d="M398.18128,481.715184 C411.71928,478.025184 418.26728,472.795184 415.69228,466.265184 L351.82928,436.915184 L325.56328,450.305184 C348.73928,478.115184 386.85128,484.805184 398.18128,481.715184 Z"
           id="path117333"
           fill="#5E5B6A"
           fill-rule="nonzero"
           mask="url(#mask-2)" />
        <path
           d="M330.71328,437.945184 C315.26328,447.725184 267.88128,457.515184 244.19028,423.525184"
           id="path117335"
           stroke="#29282D"
           stroke-width="17.5107"
           mask="url(#mask-2)" />
        <path
           d="M348.774514,464.25023 C348.65119,466.889171 351.510279,468.607699 353.782853,467.26062 L364.780895,460.74148 L364.780895,469.875184 C364.780895,472.390334 367.469196,473.991739 369.680893,472.794084 L382.412049,465.900042 L386.803182,478.674249 C387.671605,481.20057 391.016545,481.718378 392.608181,479.572882 L402.393181,466.382882 C403.485434,464.910546 403.177315,462.831536 401.704978,461.739283 C400.232642,460.647031 398.153632,460.955149 397.06138,462.427486 L391.032161,470.554761 L387.416378,460.036119 C386.749557,458.096275 384.500438,457.219524 382.696668,458.196283 L371.419665,464.302888 L371.419665,454.915184 C371.419665,452.342961 368.620412,450.748158 366.407708,452.059748 L355.693425,458.410688 L356.450047,442.220137 C356.57999,439.439538 353.43553,437.743589 351.183399,439.379597 L337.004399,449.679597 C335.52119,450.757039 335.192251,452.832856 336.269693,454.316065 C337.347135,455.799274 339.422953,456.128213 340.906162,455.050771 L349.496031,448.810863 L348.774514,464.25023 Z"
           id="path117337"
           fill="#2A2A2A"
           fill-rule="nonzero" />
        <path
           d="M210.011906,512.365184 C211.988906,507.915184 210.565906,497.975184 209.458906,496.315184 C208.351906,494.655184 73.9129059,484.145184 73.9129059,484.145184 C51.5999059,482.485184 6.04090595,472.135184 2.98390595,484.145184 C-7.43709405,525.085184 20.2549059,525.085184 37.9589059,525.085184 C62.3009059,525.085184 65.1889059,518.635184 81.1049059,520.665184 C89.4039059,521.715184 101.574906,527.295184 157.450906,527.295184 C202.265906,527.295184 205.585906,522.315184 210.011906,512.365184 Z"
           id="path117339"
           fill="#29282D"
           fill-rule="nonzero"
           transform="translate(105.851593, 502.857092) scale(-1, 1) translate(-105.851593, -502.857092) " />
        <mask
           id="mask-4"
           fill="white">
          <use
             xlink:href="#path-3"
             id="use117341" />
        </mask>
        <use
           id="use117344"
           fill="#3E3C47"
           fill-rule="nonzero"
           transform="translate(103.605561, 467.049030) scale(-1, 1) translate(-103.605561, -467.049030) "
           xlink:href="#path-3" />
        <path
           d="M73.5202424,482.775184 C73.9012424,476.135184 75.1602424,478.095184 77.3362424,475.025184 C93.9672424,475.025184 91.1712424,509.335184 91.1712424,509.335184 L60.6592424,524.465184 C56.8432424,524.285184 0.704242413,523.645184 0.704242413,516.735184 C53.1092424,519.315184 75.1602424,510.435184 75.1602424,501.575184 C75.1602424,494.535184 73.0432424,491.075184 73.5202424,482.775184 Z"
           id="path117346"
           fill="#29282D"
           fill-rule="nonzero"
           mask="url(#mask-4)"
           transform="translate(46.026261, 499.745184) scale(-1, 1) translate(-46.026261, -499.745184) " />
        <path
           d="M147.22652,480.475184 C153.39052,482.695184 158.48552,482.865184 161.53352,480.905184 C169.39052,475.775184 165.32852,466.695184 163.58452,463.125184 C166.87952,467.585184 170.14952,472.055184 172.60052,476.855184 C176.47052,484.345184 177.73552,492.325184 174.35452,497.115184 C168.28652,505.755184 155.73852,500.555184 147.81752,496.255184 L96.7785195,463.125184 L147.22652,480.475184 Z"
           id="path117348"
           fill="#EAF4FB"
           fill-rule="nonzero"
           mask="url(#mask-4)"
           transform="translate(136.545400, 482.454519) scale(-1, 1) translate(-136.545400, -482.454519) " />
        <path
           d="M93.373029,481.715184 C106.911029,478.025184 113.459029,472.795184 110.884029,466.265184 L47.021029,436.915184 L20.755029,450.305184 C43.931029,478.115184 82.043029,484.805184 93.373029,481.715184 Z"
           id="path117350"
           fill="#5E5B6A"
           fill-rule="nonzero"
           mask="url(#mask-4)"
           transform="translate(66.095155, 459.661544) scale(-1, 1) translate(-66.095155, -459.661544) " />
        <path
           d="M192.80828,437.945184 C177.35828,447.725184 129.97628,457.515184 106.28528,423.525184"
           id="path117352"
           stroke="#29282D"
           stroke-width="17.5107"
           mask="url(#mask-4)"
           transform="translate(149.546780, 435.360438) scale(-1, 1) translate(-149.546780, -435.360438) " />
        <path
           d="M47.0905407,464.25023 C46.9672169,466.889171 49.8263053,468.607699 52.0988797,467.26062 L63.0969221,460.74148 L63.0969221,469.875184 C63.0969221,472.390334 65.7852232,473.991739 67.9969196,472.794084 L80.7280755,465.900042 L85.1192091,478.674249 C85.987632,481.20057 89.332572,481.718378 90.9242078,479.572882 L100.709208,466.382882 C101.80146,464.910546 101.493342,462.831536 100.021005,461.739283 C98.5486689,460.647031 96.4696588,460.955149 95.3774063,462.427486 L89.3481881,470.554761 L85.732405,460.036119 C85.0655835,458.096275 82.8164651,457.219524 81.0126945,458.196283 L69.7356921,464.302888 L69.7356921,454.915184 C69.7356921,452.342961 66.9364385,450.748158 64.7237344,452.059748 L54.0094514,458.410688 L54.7660734,442.220137 C54.8960172,439.439538 51.7515569,437.743589 49.4994256,439.379597 L35.3204256,449.679597 C33.8372168,450.757039 33.5082778,452.832856 34.5857199,454.316065 C35.663162,455.799274 37.7389797,456.128213 39.2221885,455.050771 L47.8120582,448.810863 L47.0905407,464.25023 Z"
           id="path117354"
           fill="#2A2A2A"
           fill-rule="nonzero"
           transform="translate(67.657294, 459.827186) scale(-1, 1) translate(-67.657294, -459.827186) " />
      </g>
      <g
         id="upper-limb"
         transform="translate(0.837500, 465.033000)"
         fill-rule="nonzero">
        <path
           d="M132.9965,472.826 C132.9965,483.125 140.8185,491.741 151.0695,492.733 L243.7705,501.704 C252.5695,502.555 261.4275,502.593 270.2325,501.817 L374.3755,492.639 C384.9245,491.71 392.9205,482.718 392.6115,472.132 L381.5645,94.399 C381.2485,83.586 372.3905,74.984 361.5725,74.984 L152.9965,74.984 C141.9505,74.984 132.9965,83.938 132.9965,94.984 L132.9965,472.826 Z"
           id="path117357"
           fill="#A82639" />
        <polygon
           id="polygon117359"
           fill="#36386D"
           points="181.1625 256.467 355.1625 256.467 355.1625 205.467 181.1625 205.467" />
        <polygon
           id="polygon117361"
           fill="#36386D"
           points="170.1625 348.467 344.1625 348.467 344.1625 297.467 170.1625 297.467" />
        <polygon
           id="polygon117363"
           fill="#36386D"
           points="170.1625 440.467 344.1625 440.467 344.1625 389.467 170.1625 389.467" />
        <ellipse
           id="ellipse117365"
           fill="#682F37"
           cx="251.0215"
           cy="86.863"
           rx="70.0249"
           ry="70.8789" />
        <rect
           id="Rectangle"
           fill="#EBBAAA"
           x="213.8055"
           y="4.26325641e-14"
           width="76.8567"
           height="115.285"
           rx="38.4283"
           style="fill:#6e5243;fill-opacity:1" />
        <path
           d="M143.668487,205.015326 C144.284129,204.584514 144.631458,204.341462 144.911973,204.145084 C145.396279,203.80604 145.800861,203.522541 146.191745,203.248238 C155.619029,196.632623 161.540741,192.134951 168.099092,186.209719 C177.100027,178.077701 184.886314,169.103639 191.683802,158.598431 C204.735081,138.428273 198.964089,111.496977 178.793931,98.4456982 C158.623773,85.3944194 131.692477,91.1654114 118.641198,111.335569 C113.959069,118.571587 108.944584,123.101992 96.2168242,132.033722 C95.8563679,132.286673 95.4773247,132.552276 95.0178185,132.873958 C94.7453284,133.064718 94.4065199,133.301809 93.7835137,133.737774 C82.2985771,141.775729 76.4548415,146.196643 69.2278804,152.903845 C59.0042642,162.392183 50.4566122,173.074216 43.3636585,185.841532 L38.4277673,200.145012 C22.5542721,300.108955 16.6590084,396.917847 25.9675101,475.109261 C28.8075022,498.965195 50.4488265,516.001982 74.3047607,513.16199 C98.1606949,510.321998 115.197482,488.680674 112.35749,464.824739 C104.429941,398.233326 109.295864,312.138146 122.989278,222.530122 C126.933183,217.324749 132.35187,212.935479 143.668487,205.015326 Z"
           id="path117368"
           fill="#EBBAAA"
           style="fill:#6e5243;fill-opacity:1" />
        <path
           d="M399.19351,463.824739 C396.353518,487.680674 413.390305,509.321998 437.246239,512.16199 C461.102174,515.001982 482.743498,497.965195 485.58349,474.109261 C494.89221,395.916011 488.996886,299.101777 473.123146,199.144467 L468.187342,184.841532 C457.385423,165.398079 445.48954,150.065 420.903054,121.452317 C399.420367,96.4517002 392.716409,88.204144 385.683802,77.3355694 C372.632523,57.1654114 345.701227,51.3944194 325.531069,64.4456982 C305.360911,77.4969769 299.589919,104.428273 312.641198,124.598431 C322.68753,140.12458 330.50834,149.746145 354.917665,178.152656 C372.251132,198.324591 381.742914,210.203255 388.463948,220.890564 C402.232104,310.722303 407.140131,397.073128 399.19351,463.824739 Z"
           id="path117370"
           fill="#EBBAAA"
           style="fill:#6e5243;fill-opacity:1" />
        <path
           d="M212.3255,182.536 L125.5125,362.699 C125.5125,362.699 49.159,320.862 19.8727,293.668 C19.8727,293.668 31.9244,224.636 49.159,161.617 C59.1525,125.074 83.2305,96.533 101.6985,79.002 C116.4945,64.956 135.8415,57.431 155.8895,53.652 L193.4985,46.564 L212.3255,182.536 Z"
           id="path117372"
           fill="#2D4973" />
        <path
           d="M19.9829,292.608 C22.0578,275.792 38.8385,264.947 55.0226,269.962 L97.1185,283.008 C110.8465,287.263 119.9285,300.299 119.1635,314.65 L118.9485,318.697 C118.8645,320.269 118.6625,321.833 118.3445,323.374 L95.8735,432.175 C93.9285,441.593 85.8135,448.472 76.2045,448.847 L24.9304,450.85 C12.0419,451.354 1.7729,440.187 3.3525,427.386 L19.9829,292.608 Z"
           id="path117374"
           fill="#2D4973" />
        <path
           d="M5.2296,451.342 L-3.97903932e-13,406.367 C33.4699,400.509 79.4915,408.807 98.3175,413.688 L93.0885,451.342 C93.0885,451.342 65.8935,454.479 49.159,454.479 C32.424,454.479 5.2296,451.342 5.2296,451.342 Z"
           id="path117376"
           fill="#45689F" />
        <path
           d="M105.1245,130.352 C108.3605,84.334 146.9055,48.656 193.0375,48.656 C202.2465,48.656 210.6965,53.913 214.7225,62.195 L244.7495,123.963 C244.7495,123.963 222.7845,245.292 222.7845,304.91 C222.7845,355.072 212.4185,476.316 209.1295,513.517 C208.5995,519.517 203.1155,523.79 197.1605,522.882 L93.9565,507.139 C88.6955,506.336 84.8765,501.712 85.0815,496.395 L92.0425,316.415 L105.1245,130.352 Z"
           id="path117378"
           fill="#2B4E84" />
        <path
           d="M231.726438,124.189775 C212.600008,281.759901 198.2069,459.160651 198.2069,514.098 L211.8041,514.098 C211.8041,459.825353 226.158667,282.899634 245.224562,125.828225 L231.726438,124.189775 Z"
           id="path117380"
           fill="#45689F" />
        <path
           d="M116.3515,256.822 L118.8035,200.68 L197.6275,193.705 C192.2325,218.469 190.6885,253.818 189.9175,271.492 C130.9905,297.044 136.5205,288.952 116.3515,256.822 Z"
           id="path117382"
           fill="#243F68" />
        <polygon
           id="polygon117384"
           fill="#45689F"
           points="195.2095 193.835 114.9845 183.004 108.8405 205.768 140.3515 231.224 184.8715 214.323" />
        <path
           d="M206.5455,528.13 L88.3545,515.638 C85.6945,515.357 83.6745,513.113 83.6745,510.437 L83.6745,492.133 L212.3255,505.55 L212.3255,522.929 C212.3255,526.035 209.6345,528.456 206.5455,528.13 Z"
           id="path117386"
           fill="#45689F" />
        <polygon
           id="polygon117388"
           fill="#45689F"
           points="245.224562 126.189775 209.1865 37.893 165.2575 50.967 165.2575 153.249" />
        <path
           d="M297.6325,184.274 L384.4455,364.437 C384.4455,364.437 460.7985,322.6 490.0855,295.406 C490.0855,295.406 478.0335,226.374 460.7985,163.355 C449.4425,121.831 419.9015,90.64 401.0705,74.193 C390.5465,65 377.3705,59.783 363.6385,57.194 L316.4595,48.302 L297.6325,184.274 Z"
           id="path117390"
           fill="#2D4973" />
        <path
           d="M489.9745,294.608 C487.9005,277.792 471.1195,266.947 454.9355,271.963 L412.8385,285.009 C399.1115,289.263 390.0295,302.299 390.7935,316.65 L391.0095,320.698 C391.0935,322.27 391.2955,323.833 391.6135,325.375 L414.0845,434.176 C416.0295,443.594 424.1445,450.472 433.7535,450.848 L485.0275,452.851 C497.9155,453.354 508.1845,442.188 506.6055,429.386 L489.9745,294.608 Z"
           id="path117392"
           fill="#2D4973" />
        <path
           d="M504.7285,453.342 L509.9575,408.367 C476.4875,402.51 430.4665,410.808 411.6395,415.689 L416.8695,453.342 C416.8695,453.342 444.0635,456.48 460.7985,456.48 C477.5335,456.48 504.7285,453.342 504.7285,453.342 Z"
           id="path117394"
           fill="#45689F" />
        <path
           d="M396.3705,124.057 C391.9695,82.33 356.7795,50.656 314.8215,50.656 C306.2265,50.656 298.3855,55.563 294.6275,63.293 L264.1625,125.963 C264.1625,125.963 286.1275,247.292 286.1275,306.91 C286.1275,357.072 296.4935,478.316 299.7825,515.517 C300.3125,521.518 305.7965,525.79 311.7515,524.882 L414.9555,509.139 C420.2165,508.336 424.0355,503.712 423.8305,498.395 L416.8695,318.416 L396.3705,124.057 Z"
           id="path117396"
           fill="#2B4E84" />
        <path
           d="M263.687438,127.828225 C282.753333,284.899634 297.1079,461.825353 297.1079,516.098 L310.7051,516.098 C310.7051,461.160651 296.311992,283.759901 277.185562,126.189775 L263.687438,127.828225 Z"
           id="path117398"
           fill="#45689F" />
        <path
           d="M392.5595,258.822 L390.1085,202.68 L311.2845,195.705 C316.6795,220.469 318.2235,255.818 318.9945,273.492 C377.9215,299.044 372.3915,290.952 392.5595,258.822 Z"
           id="path117400"
           fill="#243F68" />
        <polygon
           id="polygon117402"
           fill="#45689F"
           points="313.7025 195.836 393.9275 185.004 400.0715 207.769 368.5605 233.224 324.0405 216.323" />
        <path
           d="M302.3665,530.13 L420.5565,517.638 C423.2175,517.357 425.2375,515.113 425.2375,512.438 L425.2375,494.133 L296.5865,507.551 L296.5865,524.929 C296.5865,528.035 299.2775,530.456 302.3665,530.13 Z"
           id="path117404"
           fill="#45689F" />
        <polygon
           id="polygon117406"
           fill="#45689F"
           points="263.687438 127.828225 292.1635 38.967 343.6525 45.967 343.6535 155.25" />
      </g>
      <g
         id="head"
         transform="translate(31.601500, -0.000001)"
         fill-rule="nonzero">
        <ellipse
           id="ellipse117409"
           fill="#EBBAAA"
           cx="58.0695"
           cy="320.826001"
           rx="58.0695"
           ry="55.0806"
           style="fill:#7b5b4a;fill-opacity:1" />
        <ellipse
           id="ellipse117411"
           fill="#EBBAAA"
           cx="385.1375"
           cy="325.096001"
           rx="58.0695"
           ry="55.0806"
           style="fill:#7b5b4a;fill-opacity:1" />
        <path
           d="M51.2065,228.572001 C47.3995,132.212001 124.4895,52.0171011 220.9245,52.0171011 C317.5925,52.0171011 394.7695,132.582001 390.6195,229.161001 L385.0125,359.613001 C381.2305,447.617001 308.7835,517.017001 220.6975,517.017001 C132.3915,517.017001 59.8455,447.280001 56.3595,359.042001 L51.2065,228.572001 Z"
           id="path117413"
           fill="#EED4CC"
           style="fill:#8d6956;fill-opacity:1" />
        <path
           d="M257.268705,403.974022 C258.034532,410.094056 261.212894,417.526651 266.574467,422.401233 C269.780056,425.315657 274.741307,425.079622 277.655732,421.874034 C280.570156,418.668445 280.334121,413.707194 277.128533,410.792769 C274.89697,408.763899 273.175772,404.738881 272.836295,402.02598 C272.298358,397.727109 268.37735,394.678269 264.078479,395.216206 C259.779608,395.754143 256.730768,399.675151 257.268705,403.974022 Z"
           id="path117415"
           fill="#C99584"
           style="fill:#7b5b4a;fill-opacity:1" />
        <path
           d="M169.148926,415.868733 C175.366648,419.875974 180.719922,422.677769 187.786451,425.12204 C197.276868,428.404718 208.072523,430.194501 220.6005,430.194501 C233.285846,430.194501 244.615355,428.150093 254.520662,424.560541 C261.745552,421.942336 267.62895,418.717505 271.851406,415.550447 C275.317239,412.950895 276.019498,408.033928 273.419946,404.568095 C270.820393,401.102262 265.903427,400.400003 262.437594,402.999555 C259.431655,405.254163 254.912939,407.73098 249.175338,409.810211 C240.960957,412.786994 231.437495,414.505501 220.6005,414.505501 C209.806523,414.505501 200.744551,413.003141 192.915049,410.294963 C187.208823,408.321213 182.899962,406.066042 177.648074,402.681269 C174.006456,400.334294 169.151743,401.383809 166.804768,405.025427 C164.457793,408.667045 165.507308,413.521758 169.148926,415.868733 Z"
           id="path117417"
           fill="#C99584"
           style="fill:#7b5b4a;fill-opacity:1" />
        <path
           d="M180.1495,235.102001 L118.5295,229.129001 C117.8205,229.060001 117.1285,229.373001 116.7135,229.951001 L104.4165,247.038001 C103.4835,248.334001 104.3715,250.148001 105.9685,250.205001 L180.6375,252.854001 C183.0645,252.941001 185.0085,250.860001 184.7575,248.444001 L183.7425,238.670001 C183.5455,236.778001 182.0435,235.286001 180.1495,235.102001 Z"
           id="path117419"
           fill="#774F42" />
        <path
           d="M254.3155,235.102001 L315.9355,229.129001 C316.6445,229.060001 317.3355,229.373001 317.7515,229.951001 L330.0485,247.038001 C330.9815,248.334001 330.0935,250.148001 328.4965,250.205001 L253.8275,252.854001 C251.4005,252.941001 249.4565,250.860001 249.7075,248.444001 L250.7225,238.670001 C250.9195,236.778001 252.4215,235.286001 254.3155,235.102001 Z"
           id="path117421"
           fill="#774F42" />
        <path
           d="M143.300415,294.098741 L143.722415,307.533741 C143.930483,314.157891 149.46909,319.359154 156.09324,319.151086 C162.71739,318.943018 167.918652,313.404411 167.710585,306.780261 L167.288585,293.345261 C167.080517,286.721111 161.54191,281.519849 154.91776,281.727916 C148.29361,281.935984 143.092348,287.474591 143.300415,294.098741 Z"
           id="path117423"
           fill="#49341E" />
        <path
           d="M275.55159,293.439709 L275.24659,306.877709 C275.096207,313.50342 280.345498,318.996529 286.971208,319.146911 C293.596919,319.297294 299.090028,314.048004 299.24041,307.422293 L299.54541,293.984293 C299.695793,287.358582 294.446502,281.865473 287.820792,281.715091 C281.195081,281.564708 275.701972,286.813999 275.55159,293.439709 Z"
           id="path117425"
           fill="#49341E" />
        <rect
           id="rect117427"
           fill="#7B4C1A"
           x="41.2325"
           y="183.017001"
           width="23"
           height="138"
           rx="11.5"
           style="fill:#33210d;fill-opacity:1" />
        <rect
           id="rect117429"
           fill="#7B4C1A"
           x="375.2325"
           y="202.017001"
           width="23"
           height="122"
           rx="11.5"
           style="fill:#553a1c;fill-opacity:1" />
        <path
           d="M206.270488,321.861903 C206.052252,323.451538 204.66364,325.931068 198.95676,334.926469 C197.669261,336.955873 196.714441,338.498478 195.807396,340.034522 C193.145803,344.541825 191.309302,348.332079 190.182119,352.04226 C188.5813,357.311441 188.500091,362.26745 190.544871,366.841861 C194.875069,376.529021 206.44898,380.517001 225.7325,380.517001 L225.7325,363.517001 C218.169442,363.517001 212.657912,362.82057 209.12606,361.603613 C207.845233,361.162283 206.961592,360.699367 206.423027,360.269342 C206.173696,360.07026 206.093774,359.968972 206.064889,359.904352 C205.568438,358.793734 206.729626,354.971622 210.445725,348.678556 C211.243433,347.32767 212.112768,345.923174 213.311616,344.033505 C213.529915,343.689413 213.755067,343.335524 214.049346,342.873721 L214.792371,341.70788 C215.40449,340.74677 215.845735,340.050004 216.275664,339.363516 C217.413981,337.545908 218.312351,336.051946 219.106303,334.634251 C221.323043,330.676001 222.664697,327.435977 223.112512,324.174099 L206.270488,321.861903 Z"
           id="path117431"
           fill="#EBBAAA"
           style="fill:#7b5b4a;fill-opacity:1" />
        <path
           d="m 204.17676,306.72465 c -0.0266,0.0288 -0.0465,0.0491 -0.0591,0.0612 l 0.0107,-0.009 c 0.0397,-0.0347 0.10279,-0.0853 0.19122,-0.14965 0.39529,-0.28748 0.95865,-0.60486 1.71517,-0.9234 2.45684,-1.03446 5.96178,-1.68654 10.69777,-1.68654 4.77127,0 8.50744,0.66421 11.32602,1.73795 0.91331,0.34793 1.63752,0.70557 2.18696,1.04368 0.16416,0.10102 0.2893,0.18609 0.37707,0.25162 0.0181,0.0135 0.002,1.6e-4 -0.0475,-0.0436 1.65113,1.46765 4.1794,1.31892 5.64707,-0.3322 1.46767,-1.65114 1.31895,-4.17942 -0.33219,-5.6471 -0.31296,-0.27818 -0.79323,-0.63679 -1.45169,-1.04199 -0.97399,-0.59938 -2.14822,-1.17925 -3.53178,-1.70632 -3.74392,-1.42626 -8.44525,-2.26205 -14.17398,-2.26205 -5.76401,0 -10.32157,0.84792 -13.80223,2.31346 -2.34541,0.98754 -3.87389,2.09916 -4.70808,3.05252 -1.45473,1.66255 -1.28626,4.1896 0.37629,5.64433 1.63827,1.43348 4.11597,1.29083 5.57991,-0.3044 z"
           id="path117433"
           fill="#f2f6fa"
           style="display:none" />
        <path
           d="m 231.2325,305.717 c 0,1.87742 -0.0636,3.6119 -0.2133,6.46824 -0.0161,0.30606 -0.0161,0.30606 -0.0321,0.60978 -0.0813,1.53232 -0.11628,2.24169 -0.14677,3.05635 -0.14506,3.79886 -0.0245,6.56649 0.51325,9.3812 1.33728,7.00912 5.3981,13.80443 13.87852,22.28486 9.27111,9.27111 14.88505,13.37841 20.79462,15.18738 2.75603,0.8433 5.65147,1.22404 9.6019,1.3356 1.90557,0.0536 3.50132,0.0517 7.35666,0.0124 l 0.49328,-0.005 c 2.21087,-0.0217 3.56615,-0.0309 5.15197,-0.0309 0.73341,0 1.34372,5.4e-4 2.55618,0.002 13.22847,0.0124 17.41457,-0.18772 22.73138,-1.46819 6.97395,-1.67874 12.82424,-5.24675 19.81387,-12.23638 9.35158,-9.35158 13.75408,-16.34001 15.25065,-23.44385 0.61445,-2.92096 0.76971,-5.80744 0.63986,-9.85 -0.0288,-0.90967 -0.0649,-1.72844 -0.14758,-3.44421 -0.17766,-3.70803 -0.24236,-5.55915 -0.24236,-7.85937 0,-16.21026 -3.08212,-25.4852 -11.32609,-31.51295 -8.76589,-6.41138 -23.80166,-9.18705 -49.27591,-9.18705 -23.12514,0 -38.34837,4.35029 -47.22311,12.58718 -7.29513,6.77091 -10.17489,15.81527 -10.17489,28.11282 z m 8,0 c 0,-10.27881 2.21494,-17.23521 7.61713,-22.2492 7.1545,-6.64029 20.48886,-10.4508 41.78087,-10.4508 23.89217,0 37.54844,2.52101 44.5536,7.64459 5.74203,4.19841 8.0484,11.13889 8.0484,25.05541 0,2.46647 0.068,4.41107 0.25158,8.24343 0.0806,1.67263 0.11546,2.46228 0.14242,3.31494 0.11117,3.46097 -0.0126,5.76166 -0.47233,7.94722 -1.132,5.37329 -4.73207,11.08796 -13.0791,19.43498 -6.00883,6.00883 -10.59883,8.80822 -16.02969,10.11551 -4.45095,1.07195 -8.33566,1.25761 -20.85014,1.24592 -1.21448,-0.001 -1.82715,-0.002 -2.56474,-0.002 -1.61828,0 -2.99557,0.009 -5.2307,0.0313 l -0.49493,0.005 c -3.75089,0.0382 -5.28442,0.04 -7.05097,-0.01 -3.29185,-0.093 -5.51423,-0.38519 -7.48603,-0.98853 -4.35623,-1.33348 -9.05758,-4.77311 -17.47894,-13.19448 -7.42786,-7.42785 -10.67129,-12.85537 -11.6773,-18.12822 -0.40474,-2.11864 -0.5011,-4.32993 -0.37704,-7.57872 0.0285,-0.76184 0.0621,-1.44429 0.14129,-2.93561 0.0161,-0.30517 0.0161,-0.30517 0.0324,-0.61416 0.15649,-2.98651 0.22426,-4.83382 0.22426,-6.88686 z"
           id="path117435"
           fill="#f2f6fa"
           style="display:none" />
        <path
           d="m 200.6655,305.717 c 0,1.87742 0.0636,3.6119 0.2133,6.46824 0.0161,0.30606 0.0161,0.30606 0.0321,0.60874 0.0814,1.53336 0.11632,2.24273 0.14671,3.05439 0.14517,3.80186 0.0246,6.56949 -0.51296,9.38328 -1.33746,7.01004 -5.39828,13.80535 -13.8787,22.28578 -9.27112,9.27111 -14.88505,13.37841 -20.7955,15.18765 -2.75654,0.84312 -5.65122,1.22379 -9.60153,1.33534 -1.90506,0.0536 -3.50081,0.0516 -7.35503,0.0124 l -0.4944,-0.005 c -2.21087,-0.0217 -3.56615,-0.0309 -5.15197,-0.0309 -0.73341,0 -1.34372,5.4e-4 -2.55726,0.002 -13.22739,0.0124 -17.41349,-0.18772 -22.72971,-1.46805 -6.97482,-1.67866 -12.82423,-5.2463 -19.814457,-12.23652 -9.351582,-9.35158 -13.754085,-16.34001 -15.250906,-23.44502 -0.613953,-2.91863 -0.76934,-5.80289 -0.640548,-9.85061 0.02965,-0.91052 0.06607,-1.73229 0.148386,-3.43959 0.01795,-0.37767 0.01795,-0.37767 0.03598,-0.75979 0.143831,-3.05967 0.206518,-4.9927 0.206518,-7.10242 0,-16.21026 3.082122,-25.4852 11.325603,-31.51259 8.766377,-6.41174 23.802147,-9.18741 49.276397,-9.18741 23.12514,0 38.34837,4.35029 47.22334,12.58739 7.29435,6.77116 10.17466,15.81642 10.17466,28.11261 z m -8,0 c 0,-10.27759 -2.21546,-17.23497 -7.61711,-22.24918 -7.15452,-6.64031 -20.48888,-10.45082 -41.78089,-10.45082 -23.89217,0 -37.54845,2.52101 -44.554088,7.64495 C 92.971867,284.86 90.6655,291.80048 90.6655,305.717 c 0,2.26537 -0.06606,4.30247 -0.215342,7.47807 -0.0182,0.38564 -0.0182,0.38564 -0.0363,0.76656 -0.08044,1.66843 -0.115635,2.46262 -0.143382,3.31458 -0.11015,3.46183 0.01374,5.76145 0.473108,7.94521 1.132244,5.37446 4.732316,11.08913 13.079345,19.43615 6.0094,6.0094 10.5985,8.80837 16.03013,10.11562 4.45051,1.07184 8.33522,1.2575 20.84862,1.24581 1.21556,-0.001 1.82823,-0.002 2.56582,-0.002 1.61828,0 2.99557,0.009 5.2307,0.0313 l 0.49605,0.005 c 3.74977,0.0382 5.2833,0.04 7.04934,-0.01 3.29197,-0.093 5.51372,-0.38514 7.4861,-0.9884 4.35666,-1.33362 9.05802,-4.77325 17.47938,-13.19462 7.42786,-7.42785 10.67129,-12.85537 11.67748,-18.12914 0.40456,-2.11772 0.50092,-4.32901 0.37675,-7.5808 -0.0284,-0.75884 -0.062,-1.44129 -0.14123,-2.93365 -0.0161,-0.30413 -0.0161,-0.30413 -0.0323,-0.61312 -0.15649,-2.98651 -0.22426,-4.83382 -0.22426,-6.88686 z"
           id="path117437"
           fill="#f2f6fa"
           style="display:none" />
        <path
           d="M93.2325,125.017001 C63.2325,145.887001 71.8985,178.017001 63.2325,205.017001 C63.2325,238.005001 51.8605,278.788001 39.2325,280.017001 C27.9345,281.117001 15.2323,246.362001 15.2323,214.017001 C15.2323,109.017001 74.3975,44.0169011 166.3975,44.0169011 C196.5555,44.0169011 307.2325,16.0173011 307.2325,104.017001 C262.2325,129.017001 128.2325,100.669001 93.2325,125.017001 Z"
           id="path117439"
           fill="#7B4C1A"
           style="fill:#33210d;fill-opacity:1" />
        <path
           d="M167.2325,115.017001 C252.1285,115.017001 336.1115,135.517001 353.1115,155.517001 C361.7885,198.557001 356.2495,273.017001 405.2325,273.017001 C427.2325,273.017001 423.3815,173.932001 421.2325,155.517001 C406.1875,26.6407011 260.8555,-2.23211894 174.2325,24.0170011 C121.2325,40.0775011 82.3355,115.017001 167.2325,115.017001 Z"
           id="path117441"
           fill="#AA651B"
           style="fill:#553a1c;fill-opacity:1" />
        <path
           d="m 149.35382,50.203088 c 2.48772,-6.965612 10.62854,-15.673005 23.17257,-22.533334 16.96096,-9.275947 40.16813,-14.504035 69.62873,-14.153313 3.5896,0.04273 6.53419,-2.832568 6.57739,-6.4221645 0.0423,-3.5895965 -2.83304,-6.5341816 -6.42264,-6.57691489 -31.60093,-0.3762016 -57.00533,5.34687549 -76.02126,15.74668639 -15.18162,8.302829 -25.54015,19.382278 -29.17743,29.566666 -1.2074,3.380713 0.55442,7.100112 3.93513,8.30751 3.38072,1.207397 7.10011,-0.554423 8.30751,-3.935136 z"
           id="path117443"
           fill="#aa651b"
           style="display:none;fill:#553a1c;fill-opacity:1" />
        <path
           d="M 74.857175,59.254924 C 99.955573,48.211529 120.72094,46.40589 133.34321,54.573312 c 4.17312,2.700282 9.74512,1.506307 12.4454,-2.666818 2.70028,-4.173125 1.50631,-9.745122 -2.66682,-12.445404 -18.89,-12.223055 -45.440169,-9.914403 -75.513965,3.318188 -4.549624,2.001853 -6.615001,7.312874 -4.613148,11.862498 2.001853,4.549624 7.312874,6.615001 11.862498,4.613148 z"
           id="path117445"
           fill="#aa651b"
           style="display:none;fill:#553a1c;fill-opacity:1" />
        <path
           d="M385.8805,139.914001 C406.8725,115.053001 377.9675,82.0651011 400.0135,85.7765011 C331.3635,72.0570011 346.7545,49.5303011 294.0655,99.9767011 C251.9145,140.334001 245.0475,175.717001 220.0675,194.585001 C244.1785,209.440001 270.2315,208.679001 284.2375,206.083001 C334.3835,196.789001 361.6955,168.557001 385.8805,139.914001 Z"
           id="path117447"
           fill="#AA651B"
           style="fill:#553a1c;fill-opacity:1" />
        <path
           d="M145.4165,61.3098011 C163.1845,37.3784011 180.3985,46.0000011 213.3985,61.3100011 C267.3995,86.3631011 243.9855,115.480001 228.3975,124.000001 C183.2795,148.662001 160.2225,172.120001 150.0415,196.528001 C126.0375,185.527001 117.3005,167.254001 114.8405,156.600001 C106.0345,118.457001 124.9445,88.8818011 145.4165,61.3098011 Z"
           id="path117449"
           fill="#AA651B"
           style="fill:#553a1c;fill-opacity:1" />
        <path
           d="M223.3985,88.8560011 C198.1875,134.076001 143.4315,177.793001 122.3985,160.979001 C187.5015,218.000001 235.3025,195.580001 296.3985,107.856001 C338.7395,137.000001 369.0365,134.421001 387.3985,141.000001 C405.7605,147.579001 418.0575,92.1711011 353.3985,44.0000011 C314.3365,-3.15159894 252.4445,36.7570011 223.3985,88.8560011 Z"
           id="path117451"
           fill="#AA651B"
           style="fill:#553a1c;fill-opacity:1" />
        <path
           d="M115.5625,199.375001 C78.7625,196.175001 52.4515,177.375001 59.5625,145.375001 C71.5625,91.3750011 127.5625,79.3750011 157.5625,93.3750011 C187.5625,107.375001 178.5625,146.375001 138.5625,160.375001 C118.5625,167.375001 104.5625,175.375001 115.5625,199.375001 Z"
           id="path117453"
           fill="#AA651B"
           style="fill:#553a1c;fill-opacity:1" />
        <path
           d="M326.1055,208.937001 C362.9055,205.737001 387.7725,174.603001 389.1055,157.937001 C377.1055,103.937001 314.1055,88.9364011 284.1055,102.936001 C254.1055,116.936001 273.1055,153.937001 313.1055,167.937001 C333.1055,174.937001 337.1055,184.937001 326.1055,208.937001 Z"
           id="path117455"
           fill="#AA651B"
           style="fill:#553a1c;fill-opacity:1" />
      </g>
    </g>
  </g>
  <metadata
     id="metadata169917">
    <rdf:RDF>
      <cc:Work
         rdf:about="">
        <dc:title>gee_me_007@2x</dc:title>
      </cc:Work>
    </rdf:RDF>
  </metadata>
</svg>
