<?xml version="1.0" encoding="UTF-8" standalone="no"?>
<svg
   width="1200"
   height="1600"
   viewBox="0 0 1200 1600"
   version="1.1"
   id="svg1294"
   sodipodi:docname="male-6.svg"
   inkscape:version="1.2.1 (9c6d41e, 2022-07-14)"
   xmlns:inkscape="http://www.inkscape.org/namespaces/inkscape"
   xmlns:sodipodi="http://sodipodi.sourceforge.net/DTD/sodipodi-0.dtd"
   xmlns:xlink="http://www.w3.org/1999/xlink"
   xmlns="http://www.w3.org/2000/svg"
   xmlns:svg="http://www.w3.org/2000/svg">
  <sodipodi:namedview
     id="namedview1296"
     pagecolor="#ffffff"
     bordercolor="#000000"
     borderopacity="0.25"
     inkscape:showpageshadow="2"
     inkscape:pageopacity="0.0"
     inkscape:pagecheckerboard="0"
     inkscape:deskcolor="#d1d1d1"
     showgrid="false"
     inkscape:zoom="0.37289897"
     inkscape:cx="164.92403"
     inkscape:cy="325.82552"
     inkscape:window-width="1440"
     inkscape:window-height="793"
     inkscape:window-x="0"
     inkscape:window-y="25"
     inkscape:window-maximized="1"
     inkscape:current-layer="g1292" />
  <defs
     id="defs1133">
    <path
       id="c"
       d="M127.392,35.41 C147.792,35.01 154.559,21.91 155.392,15.41 L165.891,15.41 C166.891,16.91 170.141,20.41 172.391,30.91 C175.391,44.91 180.391,47.41 183.391,60.41 C185.468,69.41 185.891,82.91 180.891,90.41 C173.126,102.06 163.391,100.91 146.891,100.91 C137.391,100.91 121.391,98.41 106.891,102.41 C86.647,108 30.8915,110.91 16.8903,106.41 C-6.9682,98.74 0.3908,76.41 10.3895,67.91 C27.9383,52.99 61.8356,54.02 70.391,42.41 C77.39,32.91 81.373,9.99 86.391,4.41 C95.391,-5.59 101.505,3.22 99.891,12.91 C97.892,24.91 101.892,35.91 127.392,35.41 Z" />
    <path
       id="e"
       d="M127.392,35.41 C147.792,35.01 154.559,21.91 155.392,15.41 L165.891,15.41 C166.891,16.91 170.141,20.41 172.391,30.91 C175.391,44.91 180.391,47.41 183.391,60.41 C185.468,69.41 185.891,82.91 180.891,90.41 C173.126,102.06 163.391,100.91 146.891,100.91 C137.391,100.91 121.391,98.41 106.891,102.41 C86.647,108 30.8915,110.91 16.8903,106.41 C-6.9682,98.74 0.3908,76.41 10.3895,67.91 C27.9383,52.99 61.8356,54.02 70.391,42.41 C77.39,32.91 81.373,9.99 86.391,4.41 C95.391,-5.59 101.505,3.22 99.891,12.91 C97.892,24.91 101.892,35.91 127.392,35.41 Z" />
    <path
       id="h"
       d="M57.608,35.41 C37.208,35.01 30.441,21.91 29.608,15.41 L19.109,15.41 C18.109,16.91 14.859,20.41 12.609,30.91 C9.609,44.91 4.609,47.41 1.609,60.41 C-0.468,69.41 -0.891,82.91 4.109,90.41 C11.874,102.06 21.609,100.91 38.109,100.91 C47.609,100.91 63.609,98.41 78.109,102.41 C98.353,108 154.108,110.91 168.11,106.41 C191.968,98.74 184.609,76.41 174.611,67.91 C157.062,52.99 123.164,54.02 114.609,42.41 C107.61,32.91 103.627,9.99 98.609,4.41 C89.609,-5.59 83.495,3.22 85.109,12.91 C87.108,24.91 83.108,35.91 57.608,35.41 Z" />
    <path
       id="j"
       d="M57.608,35.41 C37.208,35.01 30.441,21.91 29.608,15.41 L19.109,15.41 C18.109,16.91 14.859,20.41 12.609,30.91 C9.609,44.91 4.609,47.41 1.609,60.41 C-0.468,69.41 -0.891,82.91 4.109,90.41 C11.874,102.06 21.609,100.91 38.109,100.91 C47.609,100.91 63.609,98.41 78.109,102.41 C98.353,108 154.108,110.91 168.11,106.41 C191.968,98.74 184.609,76.41 174.611,67.91 C157.062,52.99 123.164,54.02 114.609,42.41 C107.61,32.91 103.627,9.99 98.609,4.41 C89.609,-5.59 83.495,3.22 85.109,12.91 C87.108,24.91 83.108,35.91 57.608,35.41 Z" />
    <path
       id="m"
       d="M76.625,0 C76.96,2.046 77.135,4.146 77.135,6.287 L77.135,20.47 C77.135,41.77 59.868,59.037 38.567,59.037 C17.267,59.037 0,41.77 0,20.47 L0,6.287 C0,4.146 0.174,2.046 0.51,0 L76.625,0 Z" />
    <pattern
       id="g"
       width="50.5"
       height="16.5"
       x="23.474"
       y="440.514"
       patternUnits="userSpaceOnUse">
      <use
         transform="scale(.1)"
         xlink:href="#a"
         id="use1127" />
    </pattern>
    <pattern
       id="l"
       width="50.5"
       height="16.5"
       x="230.94"
       y="440.514"
       patternUnits="userSpaceOnUse">
      <use
         transform="scale(.1)"
         xlink:href="#b"
         id="use1130" />
    </pattern>
  </defs>
  <g
     fill="none"
     fill-rule="evenodd"
     transform="translate(366 97)"
     id="g1292">
    <g
       transform="translate(37 888.768)"
       id="g1219">
      <path
         fill="#EBBAAA"
         fill-rule="nonzero"
         d="M129.000003 170.002C143.762575 170.002 155.757955 181.849754 155.996386 196.555506L156.000003 197.002 156.000003 425.002C156.000003 439.913688 143.911691 452.002 129.000003 452.002 114.237432 452.002 102.242052 440.154246 102.00362 425.448494L102.000003 425.002 102.000003 197.002C102.000003 182.090312 114.088315 170.002 129.000003 170.002zM265.000003 173.002C279.762575 173.002 291.757955 184.849754 291.996386 199.555506L292.000003 200.002 292.000003 428.002C292.000003 442.913688 279.911691 455.002 265.000003 455.002 250.237432 455.002 238.242052 443.154246 238.00362 428.448494L238.000003 428.002 238.000003 200.002C238.000003 185.090312 250.088315 173.002 265.000003 173.002z"
         id="path1135"
         style="fill:#7b5b4a;fill-opacity:1" />
      <polygon
         fill="#35383E"
         fill-rule="nonzero"
         points="202 0 57 0 82 334.002 92.715 389.002 160.715 389.002 167 344.002"
         id="polygon1137" />
      <path
         fill="#35383E"
         fill-rule="nonzero"
         d="M197.000003,105.232 C260.513003,105.232 312.000003,81.727 312.000003,52.732 C312.000003,23.737 260.513003,0.232 197.000003,0.232 C133.487003,0.232 82.0000032,23.737 82.0000032,52.732 C82.0000032,81.727 133.487003,105.232 197.000003,105.232 Z"
         id="path1139" />
      <polygon
         fill="#35383E"
         fill-rule="nonzero"
         points="192 .001 337 .001 312 334.002 301.285 389.002 233.285 389.002 227 344.002"
         id="polygon1141" />
      <polygon
         fill="#1D1F23"
         fill-rule="nonzero"
         points="230 386.002 306 386.002 302 408.002 233.743 408.002"
         id="polygon1143" />
      <polygon
         fill="#1D1F23"
         fill-rule="nonzero"
         points="164 386.002 88 386.002 92 408.002 160.257 408.002"
         id="polygon1145" />
      <path
         fill="#E5D6CE"
         fill-rule="nonzero"
         d="M0.892403244,500.922 C-0.895596756,496.362 0.391103244,486.182 1.39240324,484.472 C2.39370324,482.772 123.969003,472.002 123.969003,472.002 C144.148003,470.302 181.741003,470.462 184.506003,482.772 C191.510003,513.962 172.494003,513.962 156.484003,513.962 C134.471003,513.962 131.859003,507.362 117.466003,509.432 C109.961003,510.512 98.9540032,516.232 48.4243032,516.232 C7.89720324,516.232 4.89480324,511.132 0.892403244,500.922 Z"
         id="path1147" />
      <path
         fill="#F5F1EF"
         fill-rule="nonzero"
         d="M127.392003,433.642 C147.792003,433.242 154.559003,420.142 155.392003,413.642 L165.891003,413.642 C166.891003,415.142 170.141003,418.642 172.391003,429.142 C175.391003,443.142 180.391003,445.642 183.391003,458.642 C185.468003,467.642 185.891003,481.142 180.891003,488.642 C173.126003,500.292 163.391003,499.142 146.891003,499.142 C137.391003,499.142 121.391003,496.642 106.891003,500.642 C86.6470032,506.232 30.8915032,509.142 16.8903032,504.642 C-6.96819676,496.972 0.390803244,474.642 10.3895032,466.142 C27.9383032,451.222 61.8356032,452.252 70.3910032,440.642 C77.3900032,431.142 81.3730032,408.222 86.3910032,402.642 C95.3910032,392.642 101.505003,401.452 99.8910032,411.142 C97.8920032,423.142 101.892003,434.142 127.392003,433.642 Z"
         id="path1149" />
      <g
         transform="translate(0 398.232)"
         id="g1156">
        <mask
           id="d"
           fill="#fff">
          <use
             xlink:href="#c"
             id="use1151" />
        </mask>
        <path
           fill="#EEE0D9"
           fill-rule="nonzero"
           d="M88.948,13 C90.148,5.8 92.448,1.33 93.448,0 L91.449,-5 L79.948,-5 C74.615,-0.33 65.648,11.1 72.448,19.5 C80.948,30 87.448,22 88.948,13 Z"
           mask="url(#d)"
           id="path1154" />
      </g>
      <g
         transform="translate(0 398.232)"
         id="g1177">
        <mask
           id="f"
           fill="#fff">
          <use
             xlink:href="#e"
             id="use1158" />
        </mask>
        <g
           fill-rule="nonzero"
           mask="url(#f)"
           id="g1175">
          <g
             transform="translate(-8)"
             id="g1173">
            <path
               fill="#133875"
               d="M33.5,89.91 C24.3,89.91 19.3901,77.75 19.3901,74.91 C18.7234,83.75 18.8901,102.71 24.8901,107.91 C32.3901,114.41 104,110.91 111.5,107.91 C119,104.91 110.5,89.91 104,93.91 C97.5,97.91 64.5,103.5 56.5,97.5 C48.5,91.5 45,89.91 33.5,89.91 Z"
               id="path1161" />
            <path
               fill="#D43726"
               d="M111.471,20.32 C111.061,22.33 106.58,17 115.377,17 C126.877,17 151,-4 159,2 C167,8 179.377,25 185.877,21 C192.377,17 200.877,32 193.377,35 C185.877,38 131.904,60.5 110.5,35 C101.382,24.14 110.598,28.72 111.471,20.32 Z"
               id="path1163" />
            <path
               fill="#133875"
               d="M190,23.5 C180.8,23.5 164.471,-4.5 163,15 C162.333,23.83 176,18.5 173.5,41 C171,63.5 197.5,60 168.5,101 C214,121.5 235.767,46 229.267,50 C222.767,54 202.267,52 194.267,46 C186.267,40 201.5,23.5 190,23.5 Z"
               id="path1165" />
            <path
               fill="#EEE0D9"
               d="M20.8906,71.91 C20.4906,65.91 18.0573,64.74 16.8906,64.91 L0.3906,65.91 L2.3906,95.91 L23.3906,107.91 C27.3906,107.74 35.3906,105.91 35.3906,99.91 C35.3906,92.41 27.8906,92.41 23.3906,87.91 C18.8906,83.41 21.3906,79.41 20.8906,71.91 Z"
               id="path1167" />
            <polygon
               fill="#EEE0D9"
               points="150.391 74.41 137.891 101.41 127.391 101.41 136.391 81.91 118.391 78.41 122.391 68.91"
               id="polygon1169" />
            <polygon
               fill="#EEE0D9"
               points="125.891 87.91 120.391 101.41 108.891 104.91 116.391 85.41"
               id="polygon1171" />
          </g>
        </g>
      </g>
      <path
         fill="#E6D6CE"
         fill-rule="nonzero"
         d="M90.3910032,434.142 C92.0478575,434.142 93.3910032,435.485146 93.3910032,437.142 C93.3910032,438.739681 92.1420833,440.045661 90.567276,440.136907 L90.3910032,440.142 L72.624,440.141 L73.8826012,456.91763 C74.0416988,459.038932 72.0116885,460.627825 70.0130112,460.010879 L69.8510687,459.955989 L50.074,452.646 L46.8191644,467.292791 C46.3894796,469.226373 44.2485831,470.204363 42.5183213,469.30997 L42.3573771,469.220608 L23.8573771,458.220608 C22.4332514,457.37383 21.9652181,455.5329 22.8119956,454.108774 C23.6274109,452.737394 25.3647022,452.252596 26.7639497,452.974698 L26.9238294,453.063392 L41.861,461.945 L44.9620421,447.991209 C45.3432149,446.275931 47.1025591,445.266675 48.7595507,445.770464 L48.9305378,445.828011 L67.55,452.709 L66.3994053,437.36637 C66.2733788,435.686017 67.5525854,434.24465 69.2118206,434.147243 L69.3910032,434.142 L90.3910032,434.142 Z"
         id="path1179" />
      <rect
         width="38.586"
         height="12.607"
         x="73.974"
         y="457.014"
         fill="url(#g)"
         fill-rule="nonzero"
         transform="rotate(-15 93.267 463.317)"
         id="rect1181" />
      <path
         fill="#E5D6CE"
         fill-rule="nonzero"
         d="M393.108003,500.922 C394.896003,496.362 393.609003,486.182 392.608003,484.472 C391.606003,482.772 270.031003,472.002 270.031003,472.002 C249.852003,470.302 212.259003,470.462 209.494003,482.772 C202.490003,513.962 221.506003,513.962 237.516003,513.962 C259.529003,513.962 262.141003,507.362 276.534003,509.432 C284.039003,510.512 295.046003,516.232 345.576003,516.232 C386.103003,516.232 389.105003,511.132 393.108003,500.922 Z"
         id="path1183" />
      <path
         fill="#F5F1EF"
         fill-rule="nonzero"
         d="M266.608003,433.642 C246.208003,433.242 239.441003,420.142 238.608003,413.642 L228.109003,413.642 C227.109003,415.142 223.859003,418.642 221.609003,429.142 C218.609003,443.142 213.609003,445.642 210.609003,458.642 C208.532003,467.642 208.109003,481.142 213.109003,488.642 C220.874003,500.292 230.609003,499.142 247.109003,499.142 C256.609003,499.142 272.609003,496.642 287.109003,500.642 C307.353003,506.232 363.108003,509.142 377.110003,504.642 C400.968003,496.972 393.609003,474.642 383.611003,466.142 C366.062003,451.222 332.164003,452.252 323.609003,440.642 C316.610003,431.142 312.627003,408.222 307.609003,402.642 C298.609003,392.642 292.495003,401.452 294.109003,411.142 C296.108003,423.142 292.108003,434.142 266.608003,433.642 Z"
         id="path1185" />
      <g
         transform="translate(209 398.232)"
         id="g1192">
        <mask
           id="i"
           fill="#fff">
          <use
             xlink:href="#h"
             id="use1187" />
        </mask>
        <path
           fill="#EEE0D9"
           fill-rule="nonzero"
           d="M96.052,13 C94.852,5.8 92.552,1.33 91.552,0 L93.551,-5 L105.052,-5 C110.385,-0.33 119.352,11.1 112.552,19.5 C104.052,30 97.552,22 96.052,13 Z"
           mask="url(#i)"
           id="path1190" />
      </g>
      <g
         transform="translate(209 398.232)"
         id="g1213">
        <mask
           id="k"
           fill="#fff">
          <use
             xlink:href="#j"
             id="use1194" />
        </mask>
        <g
           fill-rule="nonzero"
           mask="url(#k)"
           id="g1211">
          <g
             transform="translate(-38)"
             id="g1209">
            <path
               fill="#133875"
               d="M197.5,89.91 C206.7,89.91 211.61,77.75 211.61,74.91 C212.277,83.75 212.11,102.71 206.11,107.91 C198.61,114.41 127,110.91 119.5,107.91 C112,104.91 120.5,89.91 127,93.91 C133.5,97.91 166.5,103.5 174.5,97.5 C182.5,91.5 186,89.91 197.5,89.91 Z"
               id="path1197" />
            <path
               fill="#D43726"
               d="M119.529,20.32 C119.939,22.33 124.42,17 115.623,17 C104.123,17 80,-4 72,2 C64,8 51.623,25 45.123,21 C38.623,17 30.123,32 37.623,35 C45.123,38 99.096,60.5 120.5,35 C129.618,24.14 120.402,28.72 119.529,20.32 Z"
               id="path1199" />
            <path
               fill="#133875"
               d="M41,23.5 C50.2,23.5 66.529,-4.5 68,15 C68.667,23.83 55,18.5 57.5,41 C60,63.5 33.5,60 62.5,101 C17,121.5 -4.767,46 1.733,50 C8.233,54 28.733,52 36.733,46 C44.733,40 29.5,23.5 41,23.5 Z"
               id="path1201" />
            <path
               fill="#EEE0D9"
               d="M210.109,71.91 C210.509,65.91 212.943,64.74 214.109,64.91 L230.609,65.91 L228.609,95.91 L207.609,107.91 C203.609,107.74 195.609,105.91 195.609,99.91 C195.609,92.41 203.109,92.41 207.609,87.91 C212.109,83.41 209.609,79.41 210.109,71.91 Z"
               id="path1203" />
            <polygon
               fill="#EEE0D9"
               points="80.609 74.41 93.109 101.41 103.609 101.41 94.609 81.91 112.609 78.41 108.609 68.91"
               id="polygon1205" />
            <polygon
               fill="#EEE0D9"
               points="105.109 87.91 110.609 101.41 122.109 104.91 114.609 85.41"
               id="polygon1207" />
          </g>
        </g>
      </g>
      <path
         fill="#E6D6CE"
         fill-rule="nonzero"
         d="M324.609003,434.142 C326.294076,434.142 327.635734,435.525424 327.608774,437.187297 L327.600601,437.36637 L326.449,452.709 L345.069053,445.828017 C346.717228,445.218908 348.518816,446.150684 348.993277,447.816317 L349.037564,447.991209 L352.138,461.945 L367.075777,453.063392 C368.447157,452.247977 370.20504,452.651783 371.089505,453.95449 L371.187611,454.108774 C372.003026,455.480154 371.599221,457.238037 370.296513,458.122502 L370.142229,458.220608 L351.642229,469.220608 C349.939704,470.23292 347.760237,469.344199 347.225674,467.471237 L347.180442,467.292791 L343.925,452.646 L324.148954,459.955983 C322.153589,460.693401 320.06687,459.179736 320.109259,457.088428 L320.117405,456.91763 L321.375,440.141 L303.609003,440.142 C302.011322,440.142 300.705342,438.89308 300.614096,437.318273 L300.609003,437.142 C300.609003,435.544319 301.857923,434.238339 303.43273,434.147093 L303.609003,434.142 L324.609003,434.142 Z"
         id="path1215" />
      <rect
         width="38.586"
         height="12.607"
         x="281.44"
         y="457.014"
         fill="url(#l)"
         fill-rule="nonzero"
         transform="scale(-1 1) rotate(-15 0 2747.61)"
         id="rect1217" />
    </g>
    <g
       fill-rule="nonzero"
       transform="translate(0 370)"
       id="g1249">
      <path
         fill="#454B5E"
         d="M410.169997 130.964C395.397997 98.744 374.160997 90 374.160997 90L360.999997 267.054 360.999997 534C504.760997 489.308 485.170997 294.544 410.169997 130.964zM57.8298966 130.964C72.6023966 98.744 93.8394966 90 93.8394966 90L107 267.054 107 534C-36.7613034 489.308-17.1707034 294.544 57.8298966 130.964z"
         id="path1221" />
      <path
         fill="#35383E"
         d="M233.999997,130 C297.512997,130 348.999997,106.495 348.999997,77.5 C348.999997,48.505 297.512997,25 233.999997,25 C170.486997,25 118.999997,48.505 118.999997,77.5 C118.999997,106.495 170.486997,130 233.999997,130 Z"
         id="path1223" />
      <path
         fill="#FFF"
         d="M233.999997,192 C297.512997,192 348.999997,168.495 348.999997,139.5 C348.999997,110.505 297.512997,87 233.999997,87 C170.486997,87 118.999997,110.505 118.999997,139.5 C118.999997,168.495 170.486997,192 233.999997,192 Z"
         id="path1225" />
      <path
         fill="#6686B7"
         d="M233.999997,579 C297.512997,579 348.999997,552.809 348.999997,520.5 C348.999997,488.191 297.512997,462 233.999997,462 C170.486997,462 118.999997,488.191 118.999997,520.5 C118.999997,552.809 170.486997,579 233.999997,579 Z"
         id="path1227" />
      <path
         fill="#B2BDC0"
         d="M95.5448966,449.768 L385.544997,449.768 L389.368997,485.71 C389.996997,491.618 385.365997,496.768 379.424997,496.768 L101.664997,496.768 C95.7237966,496.768 91.0927966,491.618 91.7212966,485.71 L95.5448966,449.768 Z"
         id="path1229" />
      <rect
         width="70"
         height="115"
         x="199"
         fill="#EBBAAA"
         rx="35"
         id="rect1231"
         style="fill:#7b5b4a;fill-opacity:1" />
      <path
         fill="#343844"
         d="M64.5908966,268.213 C64.5908966,254.278 35.6851966,148.09 93.4965966,90.03 L190.656997,61 C182.745997,76.95 194.167997,124.065 230.050997,137.078 C265.933997,150.092 226.063997,339.687 236.031997,404.353 C247.680997,479.931 252.953997,526.979 230.050997,549.502 C207.147997,572.025 109.903997,531.348 64.5908966,498.45 C40.7612966,481.149 64.5908966,316.065 64.5908966,268.213 Z"
         id="path1233" />
      <path
         fill="#343844"
         d="M403.408997,268.213 C403.408997,254.278 432.314997,148.09 374.502997,90.03 L277.342997,61 C285.253997,76.95 273.831997,124.065 237.948997,137.078 C202.065997,150.092 241.935997,339.687 231.967997,404.353 C220.318997,479.931 215.045997,526.979 237.948997,549.502 C260.851997,572.025 358.095997,531.348 403.408997,498.45 C427.238997,481.149 403.408997,316.065 403.408997,268.213 Z"
         id="path1235" />
      <circle
         cx="240.878"
         cy="204.878"
         r="9.878"
         fill="#454B5D"
         transform="matrix(-1 0 0 1 481.756 0)"
         id="circle1237" />
      <circle
         cx="245.878"
         cy="346.878"
         r="9.878"
         fill="#454B5D"
         transform="matrix(-1 0 0 1 491.756 0)"
         id="circle1239" />
      <circle
         cx="247.597"
         cy="275.877"
         r="9.878"
         fill="#454B5D"
         transform="matrix(-1 0 0 1 495.194 0)"
         id="circle1241" />
      <circle
         cx="248.878"
         cy="417.878"
         r="9.878"
         fill="#454B5D"
         transform="matrix(-1 0 0 1 497.756 0)"
         id="circle1243" />
      <circle
         cx="243.878"
         cy="486.878"
         r="9.878"
         fill="#454B5D"
         transform="matrix(-1 0 0 1 487.756 0)"
         id="circle1245" />
      <path
         fill="#6686B7"
         d="M233.999997 115C196.499997 93 198.999997 61 198.999997 61 165.627997 92.601 164.122997 127.056 186.791997 166.608 190.999997 118.5 233.999997 115 233.999997 115zM233.999997 115C271.499997 93 268.999997 61 268.999997 61 302.371997 92.601 303.876997 127.056 281.207997 166.608 276.999997 118.5 233.999997 115 233.999997 115z"
         id="path1247" />
    </g>
    <g
       transform="translate(44)"
       id="g1290">
      <path
         fill="#EBBAAA"
         fill-rule="nonzero"
         d="M340 307C362.091 307 380 289.091 380 267 380 244.909 362.091 227 340 227 317.909 227 300 244.909 300 267 300 289.091 317.909 307 340 307zM40 307C17.9086 307 0 289.091 0 267 0 244.909 17.9086 227 40 227 62.091 227 80 244.909 80 267 80 289.091 62.091 307 40 307z"
         id="path1251"
         style="fill:#7b5b4a;fill-opacity:1" />
      <path
         fill="#F4D5CC"
         fill-rule="nonzero"
         d="M40,174 C40,91.1572 107.157,24 190,24 C272.843,24 340,91.1573 340,174 L340,250.38 L332.445,321.525 C326,382.21 269.008,424.53 208.988,413.492 C196.468,411.19 183.584,411.217 171.078,413.59 C112.741,424.658 57.138,384.286 49.5998,325.389 L40,250.38 L40,174 Z"
         id="path1253"
         style="fill:#8d6956;fill-opacity:1" />
      <path
         fill="#393939"
         d="M228.135,313.603 L228.135,327.469 C228.135,348.769 210.868,366.037 189.567,366.037 C168.267,366.037 151,348.769 151,327.469 L151,313.603 L228.135,313.603 Z"
         id="path1255" />
      <g
         transform="translate(151 307)"
         id="g1268">
        <mask
           id="n"
           fill="#fff">
          <use
             xlink:href="#m"
             id="use1257" />
        </mask>
        <g
           fill-rule="nonzero"
           mask="url(#n)"
           id="g1266">
          <g
             transform="translate(0 4)"
             id="g1264">
            <ellipse
               cx="36.51"
               cy="55.942"
               fill="#FF6C6C"
               rx="23.258"
               ry="12.667"
               transform="matrix(-1 0 0 1 73.02 0)"
               id="ellipse1260" />
            <rect
               width="77.135"
               height="15.907"
               y=".604"
               fill="#FFF"
               transform="matrix(-1 0 0 1 77.135 0)"
               id="rect1262" />
          </g>
        </g>
      </g>
      <path
         fill="#393939"
         fill-rule="nonzero"
         d="M224.016971 174.186657C224.333139 168.76663 228.909787 164.607398 234.30269 164.773506L234.582343 164.785971 294.582343 168.285971C300.095818 168.60759 304.304649 173.337868 303.983029 178.851343 303.666861 184.27137 299.090213 188.430602 293.69731 188.264494L293.417657 188.252029 233.417657 184.752029C227.904182 184.43041 223.695351 179.700132 224.016971 174.186657zM145.417657 164.785971C150.931132 164.464351 155.66141 168.673182 155.983029 174.186657 156.299198 179.606683 152.237189 184.269837 146.861549 184.731894L146.582343 184.752029 86.5823434 188.252029C81.0688685 188.573649 76.33859 184.364818 76.0169706 178.851343 75.7008024 173.431317 79.762811 168.768163 85.1384505 168.306106L85.4176566 168.285971 145.417657 164.785971z"
         id="path1270" />
      <path
         fill="#000"
         fill-rule="nonzero"
         d="M253 210C259.525457 210 264.834393 215.208544 264.9962 221.695025L265 222 265 235C265 241.627417 259.627417 247 253 247 246.474543 247 241.165607 241.791456 241.0038 235.304975L241 235 241 222C241 215.372583 246.372583 210 253 210zM127.5 210C134.025457 210 139.334393 215.208544 139.4962 221.695025L139.5 222 139.5 235C139.5 241.627417 134.127417 247 127.5 247 120.974543 247 115.665607 241.791456 115.5038 235.304975L115.5 235 115.5 222C115.5 215.372583 120.872583 210 127.5 210z"
         id="path1272" />
      <path
         fill="#393939"
         fill-rule="nonzero"
         d="m 307,206 h -94 c -3.86614,0 -7,3.13386 -7,7 v 28 c 0,10.49314 8.50686,19 19,19 h 70 c 10.49314,0 19,-8.50686 19,-19 v -28 c 0,-3.86614 -3.13386,-7 -7,-7 z m -93,8 h 92 v 27 c 0,6.07486 -4.92514,11 -11,11 h -70 l -0.2884,-0.004 C 218.77003,251.84336 214,246.97843 214,241 Z"
         id="path1274"
         style="display:none" />
      <rect
         width="40"
         height="8"
         x="170"
         y="218"
         fill="#393939"
         fill-rule="nonzero"
         id="rect1276"
         style="display:none" />
      <path
         fill="#393939"
         fill-rule="nonzero"
         d="M 167,206 H 73 c -3.866139,0 -7,3.13386 -7,7 v 27 c 0,10.49314 8.506861,19 19,19 h 70 c 10.49314,0 19,-8.50686 19,-19 v -27 c 0,-3.86614 -3.13386,-7 -7,-7 z m -93,8 h 92 v 26 c 0,6.07486 -4.92514,11 -11,11 H 85 l -0.288395,-0.004 C 78.770026,250.84336 74,245.97843 74,240 Z"
         id="path1278"
         style="display:none" />
      <path
         fill="#AD947C"
         fill-rule="nonzero"
         d="M344.994 134.034C345.613 77.6967 296.07 59.2381 304.84 69.857 313.61 80.4759 292.839 106.793 304.84 115.104 316.841 123.415 303.456 150.195 309.918 160.352 316.379 170.51 326.694 168.201 332.533 188.055 338.371 207.908 333.456 246.56 333.456 246.56 332.994 247.615 333.456 249 334.379 249 335.302 249 336.686 248.538 337.061 246.56 337.061 246.56 344.071 218.065 344.994 134.034zM35.0057 134.034C34.3871 77.6967 83.93 59.2381 75.16 69.857 66.39 80.4759 87.161 106.793 75.16 115.104 63.159 123.415 76.544 150.195 70.082 160.352 63.621 170.51 53.3059 168.201 47.4674 188.055 41.629 207.908 46.5444 246.56 46.5444 246.56 47.0059 247.615 46.5444 249 45.6213 249 44.6983 249 43.3137 248.538 42.9386 246.56 42.9386 246.56 35.9285 218.065 35.0057 134.034z"
         id="path1280"
         style="fill:#6c5d53" />
      <path
         fill="#765C43"
         d="M190.083,0 L190.084,0 C190.153,0 190.222,0 190.292,0 C190.361,0 190.431,0 190.5,0 L190.501,0 C253,0 353,31 345,153 C333.211,137.489 315.003,130.723 298.83,120.601 C264.785,99.2922 236.986,91.4913 200.1,91.4913 C168.403,91.4913 129.526,99.3443 103.268,113.106 C79.78,125.417 58.956,134.651 36,153 C29.5,28 126.5,0 190.083,0 Z"
         id="path1282"
         style="fill:#483e37" />
      <path
         fill="#765C43"
         fill-rule="nonzero"
         d="M189.896,118.395 C226.92,95.7685 243.922,91.1299 261.749,80.8452 C249.407,75.3601 217.367,60.0367 200.912,73.201 C193.87,82.3876 181.311,97.8251 189.896,118.395 Z"
         id="path1284"
         style="fill:#483e37" />
      <path
         fill="#765C43"
         fill-rule="nonzero"
         d="M119.754,128.737 C174.776,96.8548 198.603,107.14 216.429,96.8549 C204.088,91.3698 230.828,52.1759 142.894,71.1433 C116.669,76.8001 111.17,108.168 119.754,128.737 Z"
         id="path1286"
         style="fill:#483e37" />
      <path
         fill="#EBBAAA"
         fill-rule="nonzero"
         d="M183.802572,240.839048 L197.947428,250.268952 C193.140005,257.480086 189.375,268.304474 189.375,276.179 C189.375,283.772019 192.116995,286.963707 200.511755,287.052108 L200.875,287.054 L200.875,304.054 C182.331881,304.054 172.375,292.852509 172.375,276.179 C172.375,264.883891 177.073935,251.172754 183.452977,241.369839 L183.802572,240.839048 Z"
         id="path1288"
         style="fill:#7b5b4a;fill-opacity:1" />
    </g>
  </g>
</svg>
